<?xml version="1.0" encoding="UTF-8" ?>
<!DOCTYPE svg PUBLIC "-//W3C//DTD SVG 1.1//EN" "http://www.w3.org/Graphics/SVG/1.1/DTD/svg11.dtd">
<svg width="498pt" height="499pt" viewBox="0 0 498 499" version="1.1" xmlns="http://www.w3.org/2000/svg">
<g id="#4468a5ff">
</g>
<g id="#4c6ea9ff">
</g>
<g id="#5474acff">
</g>
<g id="#5a79afff">
</g>
<g id="#fafafaff">
<path fill="#fafafa" opacity="1.00" d=" M 124.99 154.99 C 128.52 155.01 132.05 154.88 135.58 155.12 C 135.52 174.97 135.31 194.83 135.68 214.68 C 132.16 214.38 128.63 214.48 125.11 214.56 C 124.83 194.71 125.06 174.85 124.99 154.99 Z" />
<path fill="#fafafa" opacity="1.00" d=" M 164.00 155.01 C 167.42 155.00 170.84 155.00 174.25 155.00 C 174.33 174.86 174.00 194.72 174.42 214.57 C 170.98 214.45 167.54 214.49 164.10 214.58 C 163.85 206.21 164.01 197.84 164.01 189.47 C 157.88 189.52 151.75 189.54 145.62 189.45 C 145.78 186.18 145.78 182.91 145.62 179.64 C 151.74 179.83 157.87 179.69 164.00 179.74 L 164.00 178.91 C 164.01 170.94 163.99 162.97 164.00 155.01 Z" />
<path fill="#fafafa" opacity="1.00" d=" M 210.25 155.04 C 214.04 155.00 217.83 154.92 221.62 155.09 C 228.57 175.01 235.89 194.80 243.04 214.64 C 239.38 214.40 235.71 214.51 232.04 214.53 C 224.04 194.97 217.33 174.94 210.25 155.04 Z" />
<path fill="#fafafa" opacity="1.00" d=" M 259.45 154.95 C 262.89 155.01 266.33 154.98 269.78 155.01 C 269.71 171.68 269.81 188.35 269.72 205.02 C 280.07 204.97 290.43 204.95 300.78 205.02 C 300.75 208.24 300.76 211.46 300.72 214.69 C 286.92 214.45 273.07 214.30 259.27 214.75 C 259.77 194.84 259.38 174.88 259.45 154.95 Z" />
<path fill="#fafafa" opacity="1.00" d=" M 320.54 168.45 C 324.87 161.12 332.84 156.49 341.13 155.13 C 341.22 158.22 341.28 161.31 341.33 164.40 C 337.31 165.63 333.27 167.47 330.77 170.99 C 325.82 176.90 325.30 185.33 327.36 192.50 C 329.49 198.71 334.98 203.33 341.25 205.05 C 341.20 208.23 341.22 211.40 341.33 214.58 C 340.93 214.51 340.12 214.36 339.72 214.28 C 334.41 212.83 328.92 210.97 325.00 206.91 C 318.37 201.00 315.42 191.80 315.80 183.09 C 316.14 177.92 317.72 172.81 320.54 168.45 Z" />
<path fill="#fafafa" opacity="1.00" d=" M 349.62 155.26 C 358.36 156.20 366.64 161.42 370.79 169.24 C 378.48 181.76 375.30 199.74 363.57 208.68 C 359.47 211.66 354.63 213.60 349.66 214.53 C 349.80 211.38 349.79 208.24 349.77 205.09 C 355.88 203.31 361.43 198.84 363.40 192.64 C 365.49 185.46 364.86 176.99 359.93 171.07 C 357.14 168.03 353.56 165.75 349.67 164.38 C 349.82 161.34 349.81 158.29 349.62 155.26 Z" />
<path fill="#fafafa" opacity="1.00" d=" M 204.67 168.10 C 206.32 173.06 208.29 177.91 210.01 182.85 C 205.55 193.36 201.34 203.96 196.98 214.52 C 193.30 214.52 189.61 214.33 185.94 214.71 C 190.83 204.10 194.72 193.04 199.21 182.26 C 200.96 177.51 203.28 172.97 204.67 168.10 Z" />
<path fill="#fafafa" opacity="1.00" d=" M 173.42 224.25 C 175.43 224.23 177.45 224.20 179.47 224.21 C 185.18 224.30 190.89 224.23 196.60 224.24 C 204.32 246.24 212.48 268.09 220.39 290.03 C 227.14 308.17 233.42 326.50 240.44 344.53 C 240.06 344.54 239.31 344.54 238.94 344.54 C 231.86 344.46 224.77 344.51 217.69 344.51 C 214.51 336.04 211.14 327.64 207.93 319.19 C 195.50 287.88 185.02 255.86 173.42 224.25 Z" />
<path fill="#fafafa" opacity="1.00" d=" M 352.28 224.47 C 359.86 224.55 367.45 224.57 375.04 224.46 C 370.00 232.44 365.03 240.47 360.01 248.46 C 348.63 267.65 335.67 285.81 323.32 304.37 C 320.55 308.38 317.99 312.54 315.05 316.43 C 302.31 297.43 289.72 278.34 277.01 259.32 C 276.98 287.73 277.05 316.14 276.96 344.54 C 269.98 344.47 262.99 344.49 256.01 344.53 C 256.00 340.07 256.00 335.62 256.00 331.17 C 255.98 295.60 256.04 260.03 255.97 224.45 C 263.56 224.56 271.14 224.44 278.73 224.52 C 290.56 243.89 303.14 262.81 315.25 282.02 C 325.90 265.42 336.53 248.80 347.27 232.25 C 348.94 229.66 350.59 227.05 352.28 224.47 Z" />
<path fill="#fafafa" opacity="1.00" d=" M 162.46 250.76 C 165.44 260.96 170.05 270.68 173.17 280.79 C 164.51 302.01 155.81 323.22 147.32 344.50 C 139.88 344.52 132.44 344.40 125.01 344.56 C 137.13 314.49 149.32 284.45 161.43 254.38 C 161.82 253.18 162.17 251.98 162.46 250.76 Z" />
<path fill="#fafafa" opacity="1.00" d=" M 372.45 259.73 C 373.30 258.50 374.13 257.26 374.97 256.03 C 374.98 258.29 375.00 260.56 375.00 262.82 C 374.98 290.05 375.07 317.28 374.94 344.52 C 367.83 344.38 360.71 344.64 353.61 344.38 C 353.92 325.25 353.66 306.12 353.72 286.99 C 359.96 277.90 366.11 268.75 372.45 259.73 Z" />
</g>
<g id="#3d62a1ff">
</g>
<g id="#4a6ca7ff">
</g>
<g id="#4e70a9ff">
</g>
</svg>
